<svg width="20" height="20" viewBox="0 0 20 20" fill="none" xmlns="http://www.w3.org/2000/svg" class="block dark:text-[#AEAEAE] text-colorTextLightMode w-5 h-5 dark:text-channelTextLabel"><g class="transform translate-y-[2px] translate-x-[-1.5px]"><path d="M17.4393 9.4715L17.6833 8.6585H11.7483C11.5857 8.6585 11.4231 8.49589 11.4231 8.33329V7.76419H9.14667L10.2036 3.86175H8.41496L7.35805 7.76419H3.37431L2.8865 9.4715H6.87024L6.05724 12.3983H2.1548L1.66699 14.1056H5.65073L4.51252 18.3333H6.30114L7.43935 14.1056H10.5288L9.39057 18.3333H11.1792L12.3174 14.1056H16.3011L16.7889 12.3983H12.8052L13.6182 9.4715H17.4393ZM10.9353 12.3983H7.84585L8.65886 9.4715H11.7483L10.9353 12.3983Z" fill="currentColor"></path><path fill-rule="evenodd" clip-rule="evenodd" d="M13.2117 3.45524V3.13004C13.2117 2.31703 13.8621 1.66663 14.6751 1.66663C15.4881 1.66663 16.1385 2.31703 16.1385 3.13004V3.45524H16.4637C16.7889 3.45524 17.0328 3.69915 17.0328 4.02435V6.95118C17.0328 7.27638 16.7889 7.52028 16.4637 7.52028H12.8865C12.5613 7.52028 12.3174 7.27638 12.3174 6.95118V4.02435C12.3174 3.69915 12.5613 3.45524 12.8865 3.45524H13.2117ZM13.7808 3.13004C13.7808 2.64224 14.1873 2.23573 14.6751 2.23573C15.1629 2.23573 15.5694 2.64224 15.5694 3.13004V3.45524H13.7808V3.13004ZM14.6751 4.83736C14.919 4.83736 15.0816 4.99996 15.0816 5.24386V5.81297C15.0816 6.05687 14.919 6.21947 14.6751 6.21947C14.4312 6.21947 14.2686 6.05687 14.2686 5.81297V5.24386C14.3499 4.99996 14.5125 4.83736 14.6751 4.83736Z" fill="currentColor"></path></g></svg>